<?xml version="1.0" encoding="UTF-8" standalone="no"?>
<!DOCTYPE svg PUBLIC "-//W3C//DTD SVG 1.1//EN" "http://www.w3.org/Graphics/SVG/1.1/DTD/svg11.dtd">
<svg version="1.1" xmlns="http://www.w3.org/2000/svg" xmlns:xlink="http://www.w3.org/1999/xlink" preserveAspectRatio="xMidYMid meet" viewBox="0 0 640 640" width="640" height="640"><defs><path d="M492.82 459.38C439.63 459.38 385.7 372.68 385.7 304.57C385.7 236.45 439.63 212.71 492.82 212.71C546.01 212.71 585.55 267.93 585.55 336.04C585.55 404.16 546.01 459.38 492.82 459.38Z" id="b6pYhXcJ2C"></path><path d="M283.17 426.98C268.75 527.48 209.14 555.5 141.97 545.67C74.8 535.84 2.95 455.4 12.7 387.41C22.45 319.41 81.08 308.01 148.25 317.84C215.42 327.67 297.58 326.47 283.17 426.98Z" id="e7rinhrEB"></path><path d="M214.12 432.54C160.53 395.11 171.5 327.48 214.52 264.66C257.54 201.84 316.32 167.61 369.91 205.04C423.5 242.48 447.7 334.67 404.68 397.49C361.66 460.31 267.72 469.98 214.12 432.54Z" id="f2aKOQsEvD"></path><path d="M348.27 228.78C305.12 281.38 216.33 292.56 158.1 243.83C99.86 195.1 94.22 104.92 137.36 52.32C180.51 -0.28 248.93 13.37 307.17 62.1C365.41 110.83 391.41 176.18 348.27 228.78Z" id="atFvRG4H"></path><path d="M303.32 347.83C290.58 338.93 293.19 322.86 303.42 307.93C313.64 292.99 327.62 284.86 340.36 293.76C353.1 302.65 358.85 324.57 348.62 339.5C338.4 354.44 316.06 356.73 303.32 347.83Z" id="bbP3dJ1M4"></path><path d="M489.6 360.47C475.2 360.47 460.59 336.99 460.59 318.54C460.59 300.1 475.2 293.66 489.6 293.66C504.01 293.66 514.72 308.62 514.72 327.07C514.72 345.52 504.01 360.47 489.6 360.47Z" id="a5dFxQLycB"></path><path d="M261.12 169.54C248.67 184.72 223.06 187.94 206.26 173.88C189.46 159.83 187.83 133.81 200.28 118.64C212.72 103.46 232.46 107.4 249.26 121.46C266.06 135.52 273.56 154.37 261.12 169.54Z" id="b2dxTLB7oM"></path><path d="M586.69 427.54C640.2 486.82 621 528.91 582.47 564.39C543.94 599.87 467.74 610.49 431.54 570.39C395.34 530.28 412.84 454.63 451.37 419.15C489.91 383.68 533.18 368.25 586.69 427.54Z" id="eIUGMUjXy"></path><path d="M535.53 474.64C553.75 494.83 547.21 509.16 534.09 521.24C520.97 533.32 495.02 536.94 482.7 523.28C470.37 509.63 476.33 483.87 489.45 471.79C502.57 459.7 517.31 454.45 535.53 474.64Z" id="e1siQ9uO4v"></path><path d="M183.64 430.14C179.57 458.53 162.73 466.44 143.76 463.67C124.78 460.89 104.49 438.17 107.24 418.96C110 399.75 126.56 396.53 145.53 399.31C164.51 402.08 187.72 401.75 183.64 430.14Z" id="a71XsTbnJX"></path></defs><g><g><g><g><use xlink:href="#b6pYhXcJ2C" opacity="1" fill-opacity="0" stroke="#000000" stroke-width="15" stroke-opacity="1"></use></g></g><g><g><use xlink:href="#e7rinhrEB" opacity="1" fill-opacity="0" stroke="#000000" stroke-width="15" stroke-opacity="1"></use></g></g><g><g><use xlink:href="#f2aKOQsEvD" opacity="1" fill-opacity="0" stroke="#000000" stroke-width="15" stroke-opacity="1"></use></g></g><g><g><use xlink:href="#atFvRG4H" opacity="1" fill-opacity="0" stroke="#000000" stroke-width="15" stroke-opacity="1"></use></g></g><g><g><use xlink:href="#bbP3dJ1M4" opacity="1" fill-opacity="0" stroke="#000000" stroke-width="15" stroke-opacity="1"></use></g></g><g><g><use xlink:href="#a5dFxQLycB" opacity="1" fill-opacity="0" stroke="#000000" stroke-width="15" stroke-opacity="1"></use></g></g><g><g><use xlink:href="#b2dxTLB7oM" opacity="1" fill-opacity="0" stroke="#000000" stroke-width="15" stroke-opacity="1"></use></g></g><g><g><use xlink:href="#eIUGMUjXy" opacity="1" fill-opacity="0" stroke="#000000" stroke-width="15" stroke-opacity="1"></use></g></g><g><g><use xlink:href="#e1siQ9uO4v" opacity="1" fill-opacity="0" stroke="#000000" stroke-width="15" stroke-opacity="1"></use></g></g><g><g><use xlink:href="#a71XsTbnJX" opacity="1" fill-opacity="0" stroke="#000000" stroke-width="15" stroke-opacity="1"></use></g></g></g></g></svg>