<svg id="Capa_1" enable-background="new 0 0 512 512" height="512" viewBox="0 0 512 512" width="512" xmlns="http://www.w3.org/2000/svg"><g><g><path d="m483.288 279.898c0 56.81-33.312 102.863-78.113 102.863s-90.227-72.305-90.227-129.115 45.426-76.612 90.227-76.612 78.113 46.054 78.113 102.864z" fill="#d5b0ec"/></g><g><path d="m405.175 177.035c-.934 0-1.867.012-2.801.029 25.424 17.009 41.948 51.682 41.948 91.693 0 53.846-29.929 98.021-71.2 102.485 10.284 7.256 21.186 11.519 32.053 11.519 44.801 0 78.113-46.053 78.113-102.863s-33.312-102.863-78.113-102.863z" fill="#bb80e0"/></g><g><path d="m114.936 264.716c56.58 8.197 125.784 7.2 113.641 91.023-12.143 83.822-62.358 107.188-118.938 98.991-56.58-8.196-117.101-75.287-108.886-131.995s57.603-66.215 114.183-58.019z" fill="#d5b0ec"/></g><g><path d="m163.701 271.565c19.999 11.764 31.878 32.39 26.245 71.276-11.944 82.451-60.725 106.406-116.167 99.367 11.668 6.383 23.852 10.783 35.86 12.522 56.58 8.197 106.795-15.169 118.938-98.991 8.719-60.187-24.502-76.644-64.876-84.174z" fill="#bb80e0"/></g><g><path d="m330.935 331.146c-36.236 52.394-115.37 60.455-160.514 29.233s-35.903-87.621.333-140.015 85.746-80.943 130.89-49.721 65.528 108.109 29.291 160.503z" fill="#d5b0ec"/></g><g><path d="m301.645 170.643c-26.053-18.018-53.559-16.128-79.13-1.238 13.262-.039 26.581 3.99 39.541 12.953 45.144 31.222 65.527 108.109 29.29 160.503-10.622 15.358-24.933 26.902-40.99 34.769 31.253-3.967 61.724-19.22 80.58-46.483 36.236-52.395 15.853-129.282-29.291-160.504z" fill="#bb80e0"/></g><g><path d="m248.795 51.423c49.056 40.641 70.961 95.15 34.617 139.019s-111.13 53.192-160.186 12.551-53.807-115.856-17.463-159.725 93.975-32.486 143.032 8.155z" fill="#d5b0ec"/></g><g><path d="m248.795 51.423c-32.967-27.311-69.805-41.41-101.454-34.407 22.314 4.365 45.501 16.566 67.037 34.407 49.056 40.641 70.961 95.15 34.617 139.019-16.946 20.455-42.251 33.395-69.407 37.266 39.052 5.605 79.822-8.293 103.825-37.266 36.342-43.869 14.438-98.377-34.618-139.019z" fill="#bb80e0"/></g><g><path d="m283.713 282.783c-8.614 12.455-27.425 14.371-38.156 6.949s-8.535-20.829.079-33.283c8.614-12.455 20.383-19.241 31.114-11.819 10.732 7.421 15.577 25.698 6.963 38.153z" fill="#62b4fd"/></g><g><path d="m276.75 244.629c-1.567-1.084-3.157-1.856-4.755-2.361 3.664 8.424 3.74 18.94-1.843 27.014-7.029 10.164-20.848 13.307-31.527 10.086.758 4.04 2.955 7.613 6.931 10.363 10.731 7.422 29.542 5.506 38.156-6.949s3.77-30.731-6.962-38.153z" fill="#1690fb"/></g><g><path d="m423.622 272.413c0 15.386-9.022 27.859-21.156 27.859s-24.437-19.583-24.437-34.969 12.303-20.749 24.437-20.749c12.133 0 21.156 12.473 21.156 27.859z" fill="#62b4fd"/></g><g><path d="m402.466 244.554c-1.278 0-2.557.063-3.824.188 4.678 5.109 7.547 12.858 7.547 21.534 0 13.366-6.811 24.529-16.553 27.231 3.887 4.112 8.369 6.765 12.83 6.765 12.134 0 21.156-12.473 21.156-27.859 0-15.387-9.023-27.859-21.156-27.859z" fill="#1690fb"/></g><g><path d="m283.411 190.442c6.091-7.352 10.538-15.003 13.503-22.837-43.845-26.16-91.184 2.189-126.159 52.759-1.137 1.644-2.247 3.292-3.33 4.943 42.512 10.746 89.476-2.865 115.986-34.865z" fill="#ae66d8"/></g><g><path d="m200.017 100.931c14.151 11.724 20.47 27.448 9.986 40.103s-32.058 15.344-46.209 3.621c-14.151-11.724-15.521-33.421-5.037-46.076 10.484-12.656 27.109-9.372 41.26 2.352z" fill="#62b4fd"/></g><g><path d="m200.017 100.931c-10.564-8.752-22.505-12.796-32.243-9.022 2.982 1.616 5.935 3.628 8.786 5.991 14.151 11.724 20.47 27.448 9.986 40.103-4.328 5.225-10.548 8.745-17.354 10.259 13.784 7.32 31.588 3.905 40.811-7.228 10.484-12.655 4.165-28.379-9.986-40.103z" fill="#1690fb"/></g><g><path d="m370.265 349.214c32.457-29.588 68.908-42.451 113.98 6.991s28.901 84.551-3.556 114.139-96.641 38.449-127.133 5-15.747-96.542 16.709-126.13z" fill="#d5b0ec"/></g><g><path d="m486.627 358.874c12.653 31.926-2.497 57.104-26.737 79.201-30.174 27.507-87.762 37.092-120.216 11.431 2.617 9.606 7.143 18.446 13.881 25.838 30.493 33.449 94.677 24.588 127.133-5 31.87-29.053 48.033-63.429 5.939-111.47z" fill="#bb80e0"/></g><g><path d="m468.453 341.083c-37.931-30.999-69.608-17.923-98.187 8.13-3.602 3.284-6.985 6.983-10.114 11.006 13.793 13.794 29.445 22.542 45.023 22.542 26.726 0 49.362-16.392 63.278-41.678z" fill="#ae66d8"/></g><g><path d="m402.339 393.109c11.052-10.075 23.465-14.456 38.813 2.381 15.348 16.836 9.841 28.792-1.211 38.867s-32.908 13.093-43.292 1.703c-10.384-11.391-5.362-32.876 5.69-42.951z" fill="#62b4fd"/></g><g><path d="m441.152 395.49c-.118-.129-.234-.246-.352-.373-1.211 5.785-5.141 10.867-10.269 15.542-9.788 8.923-28.043 12.301-39.305 5.048-.91 7.525.579 15.038 5.423 20.352 10.384 11.39 32.24 8.373 43.292-1.702 11.052-10.076 16.559-22.031 1.211-38.867z" fill="#1690fb"/></g><g><path d="m145.862 268.757c-11.899 36.164-6.768 69.956 24.56 91.622 15.043 10.404 33.861 16.439 53.608 17.933 1.849-6.982 3.377-14.494 4.548-22.573 9.978-68.881-34.976-80.485-82.716-86.982z" fill="#ae66d8"/></g><g><path d="m112.644 332.663c15.983 2.315 35.531 2.034 32.101 25.712s-17.615 30.278-33.597 27.963c-15.983-2.315-33.079-21.267-30.758-37.286 2.32-16.019 16.272-18.704 32.254-16.389z" fill="#62b4fd"/></g><g><path d="m126.086 334.539c-.024 1.43-.141 2.956-.38 4.61-3.43 23.678-17.615 30.278-33.597 27.963-2.966-.43-5.969-1.434-8.88-2.884 5.347 11.003 16.897 20.514 27.92 22.11 15.983 2.315 30.167-4.285 33.597-27.963 2.486-17.166-7.106-21.737-18.66-23.836z" fill="#1690fb"/></g><g><path d="m314.948 253.646c0 23.292 7.64 49.186 19.738 71.637 22.355-37.644 17.867-85.896-2.744-121.128-10.498 11.828-16.994 28.013-16.994 49.491z" fill="#80499e"/></g><g><path d="m265.431 157.768c-2.482 11.271-7.82 22.272-16.437 32.674-16.944 20.453-42.245 33.392-69.398 37.264 39.049 5.603 79.814-8.294 103.816-37.264 6.091-7.352 10.538-15.003 13.503-22.837-10.37-6.186-20.934-9.32-31.484-9.837z" fill="#80499e"/></g><g><path d="m262.056 182.358c5.755 3.98 11.105 8.707 15.99 14.026 1.868-1.904 3.661-3.884 5.366-5.942 6.091-7.352 10.538-15.003 13.503-22.837-24.633-14.697-50.368-12.188-74.395 1.799 13.259-.037 26.577 3.992 39.536 12.954z" fill="#80499e"/></g><g><path d="m163.705 271.567c19.996 11.764 31.874 32.39 26.241 71.273-1.339 9.242-3.142 17.746-5.364 25.557 12.019 5.527 25.498 8.859 39.447 9.914 1.849-6.982 3.377-14.494 4.548-22.573 8.719-60.184-24.5-76.641-64.872-84.171z" fill="#80499e"/></g><g><path d="m432.678 323.657c-12.393 26.486-33.754 44.791-59.549 47.584 10.281 7.255 21.18 11.52 32.046 11.52 26.727 0 49.362-16.392 63.278-41.678-12.574-10.275-24.461-15.704-35.775-17.426z" fill="#80499e"/></g></g></svg>