<?xml version="1.0" standalone="no"?>
<!DOCTYPE svg PUBLIC "-//W3C//DTD SVG 20010904//EN"
 "http://www.w3.org/TR/2001/REC-SVG-20010904/DTD/svg10.dtd">
<svg version="1.0" xmlns="http://www.w3.org/2000/svg"
 width="696.000000pt" height="520.000000pt" viewBox="0 0 696.000000 520.000000"
 preserveAspectRatio="xMidYMid meet">
<metadata>
Created by potrace 0.3, written by Peter Selinger 2001-2015
</metadata>
<g transform="scale(0.100000,0.100000)"
fill="#000000" stroke="none">
<path d="M1748 1023 c-56 -17 -94 -52 -127 -116 l-24 -47 24 -27 c13 -14 32 -35 42 -45 9 -10 17 -25 17 -33 0 -35 33 -77 73 -95 23 -10 60 -37 82 -59 34 -36 44 -41 85 -41 30 0 62 10 95 28 43 23 53 35 72 83 20 51 22 65 14 128 -5 40 -17 83 -28 98 -10 14 -27 42 -38 62 -15 27 -28 37 -55 42 -19 3 -49 13 -67 22 -38 20 -100 20 -165 0z"/><path d="M435 1475 c-16 -9 -41 -22 -55 -30 -14 -8 -33 -15 -42 -15 -16 0 -55 -71 -88 -156 -15 -42 19 -192 57 -249 18 -27 27 -53 26 -77 0 -37 9 -49 22 -28 11 17 25 11 73 -32 26 -24 64 -52 85 -62 21 -11 45 -33 53 -48 8 -15 18 -28 22 -28 4 0 24 -4 44 -9 26 -6 45 -5 63 5 15 7 50 16 78 19 114 13 115 13 127 50 21 63 105 115 187 115 36 0 54 7 98 41 30 23 55 47 55 55 0 19 -33 34 -75 34 -28 0 -44 8 -75 38 -73 71 -101 87 -150 88 -36 0 -61 10 -124 49 -89 54 -112 90 -101 155 7 39 -8 56 -39 44 -7 -3 -40 7 -72 21 -76 33 -130 40 -169 20z"/><path d="M2499 1984 c-10 -13 -10 -23 4 -62 22 -60 21 -74 -3 -122 -20 -38 -60 -60 -113 -60 -10 0 -22 -12 -28 -27 -6 -16 -20 -47 -31 -71 l-21 -42 26 -55 c15 -29 27 -67 27 -83 0 -36 11 -46 92 -80 35 -15 76 -36 91 -46 15 -11 42 -19 60 -18 18 1 46 -4 63 -10 25 -9 44 -8 91 5 78 22 100 22 108 -3 8 -25 59 -27 110 -6 60 25 39 79 -31 80 -19 1 -34 4 -34 8 0 16 46 77 61 81 50 14 70 125 34 181 -10 15 -19 51 -21 84 -8 162 -43 222 -129 222 -22 0 -60 9 -84 20 -57 26 -251 29 -272 4z"/><path d="M5445 4262 c-5 -4 -14 -14 -20 -23 -5 -9 -18 -28 -28 -42 -10 -14 -22 -52 -26 -83 -6 -45 -14 -62 -35 -79 -26 -21 -27 -25 -21 -78 10 -77 -16 -130 -93 -188 -31 -24 -78 -66 -105 -94 -50 -52 -137 -200 -137 -232 0 -11 -12 -43 -26 -71 -32 -64 -84 -104 -125 -95 -56 11 -98 -39 -113 -134 -6 -43 9 -73 38 -73 7 0 23 -11 36 -25 19 -20 30 -24 55 -19 22 4 38 0 58 -16 37 -29 38 -97 1 -165 l-25 -48 29 -61 c27 -57 32 -62 76 -74 25 -6 66 -12 91 -12 25 0 45 -4 45 -8 0 -29 138 -59 154 -33 3 4 27 11 54 13 27 3 79 20 116 38 38 18 92 35 125 39 42 5 68 15 97 37 21 17 57 37 79 45 33 11 45 23 65 64 34 68 67 113 89 120 26 8 38 41 46 131 4 43 16 101 26 127 11 28 19 73 19 110 0 46 5 68 20 87 16 20 20 41 20 107 0 84 9 124 35 149 19 19 19 60 1 112 -8 23 -14 54 -14 71 1 42 -41 94 -99 121 -50 23 -82 47 -158 117 -26 23 -59 44 -74 48 -16 3 -47 25 -69 49 -37 39 -46 44 -103 50 -35 3 -68 11 -73 16 -12 12 -18 12 -31 2z"/><path d="M3320 4203 c-75 -6 -87 -11 -99 -43 -11 -33 -110 -179 -136 -200 -22 -18 -18 -54 10 -88 14 -17 25 -37 25 -45 0 -8 11 -40 26 -72 27 -62 31 -89 19 -147 -7 -32 -4 -40 20 -62 21 -20 38 -26 73 -26 28 0 52 -6 64 -17 22 -20 66 -21 133 -4 73 19 131 49 145 77 18 32 30 30 65 -11 25 -30 40 -37 87 -45 31 -5 69 -17 83 -26 23 -15 28 -15 36 -3 5 8 9 21 9 29 0 8 12 35 27 60 14 25 25 55 25 66 -1 12 7 29 18 39 25 23 25 50 0 100 -11 22 -20 59 -20 85 0 74 -16 88 -132 114 -40 9 -89 55 -110 103 -10 24 -29 48 -41 54 -12 7 -37 25 -55 40 -32 28 -36 29 -130 27 -53 -1 -117 -3 -142 -5z"/><path d="M2511 4936 c-34 -35 -44 -53 -48 -88 -4 -38 -1 -47 21 -68 32 -31 32 -33 2 -97 -26 -54 -63 -83 -109 -83 -14 0 -48 -7 -75 -16 -40 -13 -57 -26 -79 -58 -15 -23 -34 -45 -41 -49 -39 -25 -57 -179 -27 -237 26 -50 72 -70 162 -70 69 0 83 3 99 21 10 12 19 24 19 28 0 3 7 5 15 3 8 -1 58 -2 111 -2 101 0 133 -7 186 -43 26 -17 33 -29 33 -54 0 -31 21 -63 41 -63 21 0 105 23 117 33 19 15 14 50 -13 88 -28 38 -59 50 -91 36 -27 -11 -86 18 -132 65 -37 39 -100 181 -109 245 -9 67 19 128 75 164 30 19 53 27 68 23 51 -13 82 114 39 164 -18 21 -24 23 -43 13 -12 -6 -22 -21 -22 -31 0 -12 -7 -20 -16 -20 -13 0 -15 7 -10 31 7 39 -17 77 -61 95 -50 21 -64 17 -112 -30z"/><path d="M775 5138 c-104 -18 -117 -28 -168 -129 -29 -58 -36 -65 -72 -73 -60 -12 -120 -43 -150 -76 -18 -20 -18 -22 -1 -55 25 -46 55 -73 90 -79 17 -3 57 -19 91 -37 60 -31 113 -36 107 -11 -1 9 6 10 23 6 20 -5 28 -1 42 25 21 37 33 42 98 50 47 6 51 9 73 51 13 25 30 49 38 53 16 9 19 67 4 67 -13 0 -13 27 1 36 6 3 15 2 21 -4 7 -7 21 -4 44 10 54 32 43 60 -36 93 -28 12 -59 28 -68 36 -33 28 -95 45 -137 37z"/><path d="M825 5170 c3 -5 13 -10 21 -10 8 0 14 5 14 10 0 6 -9 10 -21 10 -11 0 -17 -4 -14 -10z"/>
</g>
</svg>